<svg version="1.1" id="Layer_1" xmlns="http://www.w3.org/2000/svg" xmlns:xlink="http://www.w3.org/1999/xlink" x="0px" y="0px"
	 width="100%" viewBox="0 0 499 499" enable-background="new 0 0 499 499" xml:space="preserve">
<path fill="#FFFFFF" opacity="1.000000" stroke="none" 
	d="
M280.000000,500.000000 
	C186.666687,500.000000 93.833374,500.000000 1.000050,500.000000 
	C1.000033,333.666718 1.000033,167.333450 1.000017,1.000139 
	C167.333237,1.000093 333.666473,1.000093 499.999756,1.000046 
	C499.999847,167.333191 499.999847,333.666382 499.999939,499.999786 
	C426.833344,500.000000 353.666656,500.000000 280.000000,500.000000 
M327.986359,440.525543 
	C348.689423,431.770355 367.881226,420.489899 384.533203,405.326599 
	C438.992523,355.735809 461.963257,293.991028 452.475067,221.195023 
	C445.806213,170.030182 421.854248,127.158356 382.289520,93.818352 
	C335.244995,54.175381 280.697296,38.888287 219.884842,47.499943 
	C180.678711,53.051926 145.819000,69.243484 116.428528,95.812576 
	C61.796757,145.199905 38.991684,207.113037 48.540535,279.917114 
	C55.351078,331.843323 79.984581,375.004272 120.277847,408.592499 
	C156.536087,438.817139 198.612610,454.482849 245.878677,455.822510 
	C274.063263,456.621399 301.149567,451.268982 327.986359,440.525543 
z"/>
<path fill="#AC673F" opacity="1.000000" stroke="none" 
	d="
M327.635468,440.682465 
	C301.149567,451.268982 274.063263,456.621399 245.878677,455.822510 
	C198.612610,454.482849 156.536087,438.817139 120.277847,408.592499 
	C79.984581,375.004272 55.351078,331.843323 48.540535,279.917114 
	C38.991684,207.113037 61.796757,145.199905 116.428528,95.812576 
	C145.819000,69.243484 180.678711,53.051926 219.884842,47.499943 
	C280.697296,38.888287 335.244995,54.175381 382.289520,93.818352 
	C421.854248,127.158356 445.806213,170.030182 452.475067,221.195023 
	C461.963257,293.991028 438.992523,355.735809 384.533203,405.326599 
	C367.881226,420.489899 348.689423,431.770355 327.635468,440.682465 
M227.869995,218.305939 
	C221.085098,227.165009 212.190765,233.114380 201.842651,236.975632 
	C181.136337,244.701904 159.341415,246.221161 137.613495,247.945480 
	C124.742439,248.966934 111.836082,249.543686 98.945602,250.320389 
	C104.585068,251.219162 110.232941,251.420364 115.850487,251.945801 
	C136.886719,253.913406 157.966553,255.559097 178.923141,258.180145 
	C191.659561,259.773163 203.947617,263.655792 214.894165,270.821198 
	C230.177155,280.825195 237.041351,296.133911 240.912704,313.074860 
	C246.725632,338.512085 247.989502,364.468689 249.017197,390.430786 
	C249.087967,392.218506 249.257980,394.002289 249.381821,395.787933 
	C249.828339,395.762482 250.274857,395.737030 250.721375,395.711609 
	C251.143631,388.827087 251.290283,381.912415 252.040283,375.063782 
	C254.212158,355.231903 255.850464,335.297272 259.124725,315.640625 
	C264.232574,284.976349 282.191772,265.542969 313.229034,260.041840 
	C331.048523,256.883484 349.116425,255.021484 367.127350,253.086411 
	C378.478607,251.866867 389.931213,251.591034 401.338379,250.891861 
	C388.520050,249.543961 375.679077,249.259186 362.956573,247.881088 
	C345.612457,246.002365 328.195740,244.116333 311.103577,240.745514 
	C284.026611,235.405533 266.653564,218.861862 260.693359,191.668076 
	C257.710297,178.057739 255.623016,164.188766 254.136948,150.328873 
	C252.400314,134.132217 251.761185,117.817886 250.645905,101.554619 
	C250.119675,102.779388 249.931305,104.043602 249.821854,105.314621 
	C247.879898,127.864403 246.423187,150.469421 243.851776,172.946976 
	C242.030258,188.869431 238.028046,204.381729 227.869995,218.305939 
M340.980072,361.716522 
	C343.175201,350.980988 350.287415,345.613037 360.631073,343.993256 
	C366.836426,343.021515 373.092987,342.376495 380.309235,341.459778 
	C371.929199,340.197540 364.510132,339.365326 357.216858,337.904846 
	C349.217499,336.302948 343.710907,331.429871 341.796906,323.355377 
	C340.498657,317.878662 339.918701,312.233276 338.964844,306.672363 
	C338.688934,305.063904 338.230804,303.486725 337.856201,301.895203 
	C336.861786,306.355652 336.471375,310.663696 335.948059,314.955505 
	C334.040802,330.596436 328.308258,336.629822 312.842194,339.053772 
	C307.147644,339.946289 301.398224,340.488892 294.272491,341.362976 
	C302.373322,342.371002 309.020691,342.906036 315.554688,344.074829 
	C327.492798,346.210236 332.808197,351.615662 335.059937,363.642242 
	C336.097076,369.181610 336.663147,374.809174 337.547089,381.143768 
	C338.724121,374.482391 339.779968,368.506897 340.980072,361.716522 
M172.118515,201.549271 
	C173.454132,205.323029 174.789734,209.096786 176.125336,212.870529 
	C178.449844,196.911148 187.971222,188.604813 203.583908,185.826660 
	C187.512817,183.362564 178.756653,174.423004 176.922165,159.179993 
	C173.790833,165.269241 171.836472,172.323624 167.346649,176.878998 
	C162.920578,181.369675 155.927048,183.329834 150.419357,186.212143 
	C153.953201,187.579849 158.662247,188.581543 162.374039,191.070450 
	C166.064377,193.544998 168.752411,197.514328 172.118515,201.549271 
M341.138336,184.600677 
	C347.219421,182.434128 353.300507,180.267563 357.587341,178.740250 
	C353.334869,177.255127 346.042480,176.618500 341.802612,172.688629 
	C337.590790,168.784760 336.449280,161.568390 334.208984,156.378357 
	C331.703217,174.903305 328.838776,175.975647 308.236267,178.621597 
	C316.575745,180.876892 326.220581,178.922256 330.023865,186.973053 
	C333.199890,193.696091 333.737366,201.665619 335.443359,209.083130 
	C334.784546,207.264908 335.267426,205.175781 335.501740,203.059128 
	C336.195862,196.789825 336.293121,190.368256 341.138336,184.600677 
M385.239899,296.024384 
	C383.507385,296.535187 381.774902,297.046021 379.269012,297.784882 
	C385.969818,297.048065 389.485718,299.551239 390.301392,306.243744 
	C392.448029,298.459839 392.890991,298.117096 401.417664,297.740326 
	C395.760162,296.160065 390.327545,295.391693 390.868408,289.204803 
	C389.366211,291.244202 387.678467,293.535553 385.239899,296.024384 
M377.010254,381.394287 
	C378.541809,380.821655 380.073364,380.249023 380.569794,380.063416 
	C378.122925,377.618195 375.444580,374.941620 373.187500,372.686035 
	C372.904175,376.890900 369.476044,379.042816 365.876312,379.183929 
	C368.236023,381.072083 371.276581,383.504974 374.152618,385.806244 
	C374.642670,384.959564 375.537872,383.412933 377.010254,381.394287 
z"/>
<path fill="#FEFDFD" opacity="1.000000" stroke="none" 
	d="
M228.067673,218.006439 
	C238.028046,204.381729 242.030258,188.869431 243.851776,172.946976 
	C246.423187,150.469421 247.879898,127.864403 249.821854,105.314621 
	C249.931305,104.043602 250.119675,102.779388 250.645905,101.554619 
	C251.761185,117.817886 252.400314,134.132217 254.136948,150.328873 
	C255.623016,164.188766 257.710297,178.057739 260.693359,191.668076 
	C266.653564,218.861862 284.026611,235.405533 311.103577,240.745514 
	C328.195740,244.116333 345.612457,246.002365 362.956573,247.881088 
	C375.679077,249.259186 388.520050,249.543961 401.338379,250.891861 
	C389.931213,251.591034 378.478607,251.866867 367.127350,253.086411 
	C349.116425,255.021484 331.048523,256.883484 313.229034,260.041840 
	C282.191772,265.542969 264.232574,284.976349 259.124725,315.640625 
	C255.850464,335.297272 254.212158,355.231903 252.040283,375.063782 
	C251.290283,381.912415 251.143631,388.827087 250.721375,395.711609 
	C250.274857,395.737030 249.828339,395.762482 249.381821,395.787933 
	C249.257980,394.002289 249.087967,392.218506 249.017197,390.430786 
	C247.989502,364.468689 246.725632,338.512085 240.912704,313.074860 
	C237.041351,296.133911 230.177155,280.825195 214.894165,270.821198 
	C203.947617,263.655792 191.659561,259.773163 178.923141,258.180145 
	C157.966553,255.559097 136.886719,253.913406 115.850487,251.945801 
	C110.232941,251.420364 104.585068,251.219162 98.945602,250.320389 
	C111.836082,249.543686 124.742439,248.966934 137.613495,247.945480 
	C159.341415,246.221161 181.136337,244.701904 201.842651,236.975632 
	C212.190765,233.114380 221.085098,227.165009 228.067673,218.006439 
z"/>
<path fill="#FDFBF9" opacity="1.000000" stroke="none" 
	d="
M340.907928,362.123962 
	C339.779968,368.506897 338.724121,374.482391 337.547089,381.143768 
	C336.663147,374.809174 336.097076,369.181610 335.059937,363.642242 
	C332.808197,351.615662 327.492798,346.210236 315.554688,344.074829 
	C309.020691,342.906036 302.373322,342.371002 294.272491,341.362976 
	C301.398224,340.488892 307.147644,339.946289 312.842194,339.053772 
	C328.308258,336.629822 334.040802,330.596436 335.948059,314.955505 
	C336.471375,310.663696 336.861786,306.355652 337.856201,301.895203 
	C338.230804,303.486725 338.688934,305.063904 338.964844,306.672363 
	C339.918701,312.233276 340.498657,317.878662 341.796906,323.355377 
	C343.710907,331.429871 349.217499,336.302948 357.216858,337.904846 
	C364.510132,339.365326 371.929199,340.197540 380.309235,341.459778 
	C373.092987,342.376495 366.836426,343.021515 360.631073,343.993256 
	C350.287415,345.613037 343.175201,350.980988 340.907928,362.123962 
z"/>
<path fill="#FDFBFA" opacity="1.000000" stroke="none" 
	d="
M171.999237,201.188721 
	C168.752411,197.514328 166.064377,193.544998 162.374039,191.070450 
	C158.662247,188.581543 153.953201,187.579849 150.419357,186.212143 
	C155.927048,183.329834 162.920578,181.369675 167.346649,176.878998 
	C171.836472,172.323624 173.790833,165.269241 176.922165,159.179993 
	C178.756653,174.423004 187.512817,183.362564 203.583908,185.826660 
	C187.971222,188.604813 178.449844,196.911148 176.125336,212.870529 
	C174.789734,209.096786 173.454132,205.323029 171.999237,201.188721 
z"/>
<path fill="#FCF9F7" opacity="1.000000" stroke="none" 
	d="
M340.871826,184.867844 
	C336.293121,190.368256 336.195862,196.789825 335.501740,203.059128 
	C335.267426,205.175781 334.784546,207.264908 335.443359,209.083130 
	C333.737366,201.665619 333.199890,193.696091 330.023865,186.973053 
	C326.220581,178.922256 316.575745,180.876892 308.236267,178.621597 
	C328.838776,175.975647 331.703217,174.903305 334.208984,156.378357 
	C336.449280,161.568390 337.590790,168.784760 341.802612,172.688629 
	C346.042480,176.618500 353.334869,177.255127 357.587341,178.740250 
	C353.300507,180.267563 347.219421,182.434128 340.871826,184.867844 
z"/>
<path fill="#F6EFEB" opacity="1.000000" stroke="none" 
	d="
M385.615295,295.925659 
	C387.678467,293.535553 389.366211,291.244202 390.868408,289.204803 
	C390.327545,295.391693 395.760162,296.160065 401.417664,297.740326 
	C392.890991,298.117096 392.448029,298.459839 390.301392,306.243744 
	C389.485718,299.551239 385.969818,297.048065 379.269012,297.784882 
	C381.774902,297.046021 383.507385,296.535187 385.615295,295.925659 
z"/>
<path fill="#F9F4F1" opacity="1.000000" stroke="none" 
	d="
M376.721680,381.630280 
	C375.537872,383.412933 374.642670,384.959564 374.152618,385.806244 
	C371.276581,383.504974 368.236023,381.072083 365.876312,379.183929 
	C369.476044,379.042816 372.904175,376.890900 373.187500,372.686035 
	C375.444580,374.941620 378.122925,377.618195 380.569794,380.063416 
	C380.073364,380.249023 378.541809,380.821655 376.721680,381.630280 
z"/>
</svg>